ply
format ascii 1.0
element vertex 256
comment vertices
property float x
property float y
property float z
end_header
-1.26004588603973389 -2.82950806617736816 0.686550617218017578
-0.95566105842590332 4.40446662902832031 0.809591710567474365
0.313525080680847168 0.771159946918487549 0.628706216812133789
-1.83111977577209473 2.43393635749816895 0.78240811824798584
2.40913200378417969 -3.28516721725463867 0.923955440521240234
0.749208986759185791 -4.71430158615112305 0.866637110710144043
-1.07127046585083008 0.410066366195678711 0.64544379711151123
1.70485222339630127 3.15019583702087402 0.712872564792633057
-1.58337759971618652 2.85318422317504883 0.573055624961853027
0.794723570346832275 -2.29164004325866699 0.417651534080505371
0.697102010250091553 2.51096892356872559 0.525198698043823242
-2.23004317283630371 2.69379305839538574 0.765887916088104248
1.63512694835662842 -1.62388253211975098 0.727790772914886475
-1.09119153022766113 -0.913504302501678467 1.08409786224365234
1.0068897008895874 -4.05617380142211914 0.587253212928771973
-1.45675158500671387 0.791172981262207031 0.441177159547805786
0.0102246403694152832 2.56433868408203125 0.69717860221862793
0.974247574806213379 -0.731577694416046143 0.46001473069190979
0.739062905311584473 -2.71557521820068359 0.566170632839202881
-1.76005113124847412 4.05911111831665039 0.889079272747039795
1.00751161575317383 -4.04357576370239258 0.585212051868438721
-1.03068161010742188 -2.31161880493164062 0.568823933601379395
1.09393668174743652 1.98742043972015381 0.671263456344604492
0.69095766544342041 2.51305103302001953 0.532085955142974854
-1.61993372440338135 -1.99867165088653564 0.606971204280853271
1.68132483959197998 -1.99928033351898193 0.662123262882232666
1.84813535213470459 1.75596225261688232 1.0852583646774292
-2.22844052314758301 -1.29826474189758301 0.72817760705947876
-1.52980887889862061 1.42065727710723877 0.624227344989776611
0.0631170421838760376 -1.16785645484924316 0.391688436269760132
-1.12941944599151611 1.81555855274200439 0.589466750621795654
-2.56271052360534668 -1.82822823524475098 0.375296950340270996
1.45109820365905762 -1.23143565654754639 0.569070041179656982
-1.55312609672546387 2.8048853874206543 0.578053176403045654
0.237806230783462524 -2.25829744338989258 0.555645406246185303
-1.55520963668823242 -1.89345920085906982 0.606628596782684326
0.667739570140838623 2.51215887069702148 0.539521932601928711
-0.773709654808044434 0.794134438037872314 0.579695045948028564
0.324871867895126343 -1.16315090656280518 0.511093437671661377
0.0312185734510421753 2.57017993927001953 0.65633624792098999
0.961400032043457031 1.03725004196166992 0.652392804622650146
1.91333603858947754 -1.59960043430328369 0.855135023593902588
1.86188530921936035 -3.69436073303222656 0.865241765975952148
0.571319103240966797 -4.17899131774902344 0.752671480178833008
0.405375272035598755 -3.39550113677978516 0.631984949111938477
0.774150371551513672 3.18574666976928711 0.611272871494293213
-2.53719663619995117 0.95179903507232666 0.930770397186279297
0.663096904754638672 2.51558971405029297 0.5774192214012146
0.795148968696594238 -2.30763006210327148 0.417094767093658447
-1.25897133350372314 -2.84210538864135742 0.68092954158782959
0.976557016372680664 -0.718345522880554199 0.444003403186798096
1.09482669830322266 -1.93474662303924561 0.5858878493309021
-1.97027385234832764 0.872871279716491699 0.602301895618438721
0.654944181442260742 2.78465414047241211 0.592987000942230225
-2.20869588851928711 -1.92351686954498291 0.600365340709686279
-0.978113472461700439 -1.46287357807159424 0.667445898056030273
0.513530611991882324 -0.235667675733566284 0.626811623573303223
-0.0629300773143768311 3.59465551376342773 0.785149693489074707
-0.673411428928375244 -1.13561928272247314 0.449014097452163696
-1.53053092956542969 2.80399417877197266 0.654589176177978516
-0.754817605018615723 0.816880881786346436 0.584681272506713867
-1.51090943813323975 0.827383637428283691 0.478046298027038574
0.53736037015914917 -1.47913205623626709 0.561661243438720703
0.147606566548347473 -0.352634012699127197 0.547531008720397949
-1.24891245365142822 4.21639919281005859 0.797235250473022461
1.5171971321105957 1.9303964376449585 0.727667033672332764
-1.51453125476837158 1.41257095336914062 0.624442338943481445
0.391174018383026123 -2.30540323257446289 0.515908598899841309
-1.5719372034072876 2.81883525848388672 0.551414906978607178
-0.0727026909589767456 3.45905661582946777 0.804017841815948486
0.878273248672485352 -1.43268442153930664 0.653737246990203857
-0.493902266025543213 2.11946463584899902 0.677372336387634277
0.514197051525115967 3.08965706825256348 0.571445107460021973
0.648580312728881836 2.8742678165435791 0.666487693786621094
-1.48132884502410889 0.831151068210601807 0.576646506786346436
0.0329388082027435303 1.9392857551574707 0.681224465370178223
1.40531253814697266 -4.78123188018798828 0.843277633190155029
0.971679091453552246 -0.7559853196144104 0.461501389741897583
0.5372275710105896 -4.17140007019042969 0.795747220516204834
-1.57623612880706787 2.83179092407226562 0.539907217025756836
0.725883424282073975 -2.8265690803527832 0.567623317241668701
-2.29726338386535645 0.695180296897888184 0.732707738876342773
0.82255631685256958 -2.24619841575622559 0.455542951822280884
0.752681255340576172 3.16926980018615723 0.451130807399749756
0.977912008762359619 -0.723288297653198242 0.439055413007736206
1.01381659507751465 2.02363038063049316 0.58615952730178833
0.222529768943786621 -1.36766374111175537 0.487528741359710693
0.153113603591918945 -0.354673117399215698 0.559725701808929443
-1.4602053165435791 0.771699428558349609 0.452272385358810425
-1.36934220790863037 -1.46645760536193848 0.592833042144775391
1.12657392024993896 -3.04986190795898438 0.618908166885375977
2.38242721557617188 -2.83016729354858398 0.743641853332519531
-1.14462554454803467 0.658326268196105957 0.628026604652404785
-2.35465502738952637 -1.27252626419067383 0.370842993259429932
1.20669043064117432 -3.12169766426086426 0.518640458583831787
0.965117454528808594 -0.736594200134277344 0.472860604524612427
0.801164627075195312 -2.29971075057983398 0.419487804174423218
1.61860287189483643 -1.83241868019104004 0.680129766464233398
1.22841787338256836 3.02398419380187988 0.737146496772766113
0.463755249977111816 -1.17598021030426025 0.312321692705154419
0.656853973865509033 2.50808334350585938 0.612084925174713135
-1.48004758358001709 -2.08612871170043945 0.602877318859100342
-0.881910562515258789 2.52539563179016113 0.729280352592468262
-1.46854174137115479 0.768715620040893555 0.4426155686378479
1.97612845897674561 -3.39629793167114258 0.977193117141723633
1.23905372619628906 3.05440282821655273 0.763075709342956543
-1.68025076389312744 -1.10197949409484863 0.686064541339874268
1.09345996379852295 -1.47794198989868164 0.554123163223266602
-0.910175025463104248 1.17451608180999756 0.675040543079376221
-1.51004481315612793 2.27265143394470215 0.665454208850860596
-0.928640127182006836 4.01085710525512695 0.615649640560150146
0.969019055366516113 1.0414355993270874 0.63322371244430542
1.61113595962524414 -0.720886528491973877 0.636307239532470703
-1.59505009651184082 -1.95395863056182861 0.654109954833984375
-2.23915767669677734 2.69055652618408203 0.770634949207305908
-1.31026828289031982 -2.10113859176635742 0.560774147510528564
1.51318228244781494 1.93091034889221191 0.728568851947784424
1.51490211486816406 -2.39555120468139648 0.602135717868804932
0.996004343032836914 -4.05296421051025391 0.577795088291168213
0.685325860977172852 2.51228117942810059 0.528791487216949463
0.729429244995117188 2.52125763893127441 0.561536073684692383
-1.49761402606964111 0.759552657604217529 0.447774410247802734
-0.303493380546569824 1.90868020057678223 0.678330898284912109
-0.828095376491546631 2.19374179840087891 0.69911491870880127
-0.539813339710235596 2.94660186767578125 0.641817033290863037
-1.27189671993255615 -2.83049225807189941 0.701468944549560547
-1.61288690567016602 -1.98349118232727051 0.64371943473815918
0.0262724999338388443 3.10632681846618652 0.738419115543365479
-1.55929255485534668 2.81124258041381836 0.578837990760803223
0.650000929832458496 2.50109457969665527 0.545182168483734131
-1.50785362720489502 2.77420544624328613 0.653769314289093018
0.240963667631149292 -2.26323771476745605 0.557046175003051758
-1.4853740930557251 0.818153321743011475 0.497413277626037598
1.61072397232055664 -1.40428578853607178 0.752109169960021973
0.0470565706491470337 -1.00659656524658203 0.646658718585968018
0.00975078344345092773 2.82827901840209961 0.682222843170166016
-1.4685899019241333 1.40430331230163574 0.686959803104400635
0.964627385139465332 -0.729888260364532471 0.437178522348403931
0.51829296350479126 -1.48429501056671143 0.552657067775726318
0.672834634780883789 2.44422101974487305 0.496431678533554077
0.792634367942810059 -2.29815983772277832 0.409387290477752686
-2.23800992965698242 2.68934988975524902 0.766351222991943359
1.96195554733276367 -3.35397815704345703 0.918237805366516113
-1.56971991062164307 2.82216811180114746 0.546649336814880371
1.98829054832458496 -0.9796905517578125 0.706607937812805176
0.954942643642425537 1.04292333126068115 0.652997732162475586
-1.06771969795227051 -1.90705573558807373 0.669260025024414062
-1.48187577724456787 0.770173072814941406 0.449575334787368774
1.54690814018249512 -0.926421105861663818 0.606864750385284424
-2.29662466049194336 0.699989736080169678 0.734030604362487793
-2.29528546333312988 1.10634922981262207 0.845418035984039307
-1.33091187477111816 -1.44938087463378906 0.608672440052032471
0.428242623805999756 -1.09045767784118652 0.498201578855514526
-1.26756799221038818 -2.85430192947387695 0.678931057453155518
-1.48254644870758057 0.794284462928771973 0.445504665374755859
1.26524531841278076 2.51914572715759277 0.742463290691375732
-1.74313557147979736 4.07997751235961914 0.885271668434143066
0.0380708314478397369 2.88745379447937012 0.701684951782226562
0.0254130959510803223 1.95022380352020264 0.67123335599899292
-1.59945666790008545 2.83392143249511719 0.599799573421478271
-3.00180459022521973 -1.55347967147827148 0.36259952187538147
-0.0865123644471168518 -3.88213253021240234 0.756407558917999268
1.00233280658721924 -4.04447269439697266 0.58965003490447998
0.964639961719512939 -0.748707711696624756 0.444395482540130615
-0.826047241687774658 2.85869455337524414 0.726231276988983154
0.867002665996551514 3.05093526840209961 0.642553031444549561
0.505086719989776611 -1.48028731346130371 0.555092096328735352
0.155739173293113708 -0.355380415916442871 0.561868071556091309
-1.5196540355682373 1.41586053371429443 0.622934103012084961
0.207309991121292114 -1.71480345726013184 0.530783355236053467
0.907219946384429932 -0.249703690409660339 0.616095125675201416
1.02456295490264893 -3.93200588226318359 0.620704829692840576
0.210101604461669922 0.725497841835021973 0.624774575233459473
-0.802773714065551758 0.742682993412017822 0.548546969890594482
-0.0597139932215213776 3.60918688774108887 0.78270190954208374
1.52570486068725586 -2.40163612365722656 0.612175107002258301
0.0146736204624176025 2.56382393836975098 0.682027161121368408
1.90875065326690674 1.96417927742004395 1.14714217185974121
-0.753479480743408203 0.81800466775894165 0.583043396472930908
-1.59840226173400879 2.85961484909057617 0.565691351890563965
1.52961742877960205 1.91830778121948242 0.747763335704803467
0.734250307083129883 -2.82450342178344727 0.572440803050994873
-0.828513383865356445 2.84326028823852539 0.72284245491027832
-0.751907050609588623 0.818400800228118896 0.582866013050079346
-1.54039931297302246 2.80439591407775879 0.583468258380889893
0.780170440673828125 -2.32399511337280273 0.467740058898925781
0.528263270854949951 -1.47780907154083252 0.556005120277404785
0.209325551986694336 -3.23214530944824219 0.589584827423095703
0.691942453384399414 2.51620769500732422 0.551684141159057617
-0.954915285110473633 4.39716815948486328 0.796859622001647949
0.835089564323425293 -4.09403705596923828 0.698786914348602295
0.786912977695465088 -2.31150078773498535 0.435356587171554565
-1.22694730758666992 -2.48763394355773926 0.5824165940284729
-1.22957062721252441 2.32712388038635254 0.581895828247070312
1.88375890254974365 -1.76516187191009521 0.992098331451416016
-1.44504737854003906 -1.98187410831451416 0.603936254978179932
0.716340780258178711 -4.43735408782958984 0.838288307189941406
-0.526951789855957031 -1.35115146636962891 0.535570979118347168
0.36257636547088623 -2.66698908805847168 0.637634932994842529
0.718280553817749023 2.53109502792358398 0.572213172912597656
0.659476757049560547 2.51266598701477051 0.569326162338256836
-1.40880012512207031 -1.75510656833648682 0.680189967155456543
1.92979466915130615 -2.44824099540710449 0.738657176494598389
0.781658172607421875 -2.29976391792297363 0.424025535583496094
-2.56879019737243652 1.42681252956390381 0.945173740386962891
0.542467236518859863 2.88125824928283691 0.567696154117584229
0.893515169620513916 1.87072098255157471 0.57330089807510376
-1.45163869857788086 -1.86317551136016846 0.586766481399536133
-1.11108434200286865 -0.125442385673522949 0.554714083671569824
0.913207411766052246 -0.316042155027389526 0.621249854564666748
0.534983158111572266 -4.16936349868774414 0.799231588840484619
-1.51997470855712891 1.41796302795410156 0.620635151863098145
-1.50482189655303955 2.72873163223266602 0.659160375595092773
-1.46591281890869141 0.788088142871856689 0.440696239471435547
0.748587548732757568 2.57202577590942383 0.664952397346496582
1.23899698257446289 3.0413048267364502 0.761065006256103516
0.98004835844039917 -0.743962943553924561 0.520970582962036133
0.904159247875213623 -0.255909502506256104 0.615363836288452148
0.138198599219322205 -0.354376316070556641 0.550595521926879883
0.787624478340148926 -2.29012179374694824 0.426738500595092773
0.152066022157669067 -0.356442391872406006 0.562449753284454346
-2.63972854614257812 -1.04886496067047119 0.5283394455909729
0.366670012474060059 -0.996978163719177246 0.543544113636016846
-1.48834514617919922 0.808929085731506348 0.571150898933410645
1.51525688171386719 1.92930245399475098 0.727653741836547852
1.28749680519104004 2.50978732109069824 0.73449176549911499
0.971614301204681396 3.39404797554016113 0.480598390102386475
-0.957260489463806152 4.40582609176635742 0.80276942253112793
0.762967169284820557 -1.16465246677398682 0.520444512367248535
-1.13683676719665527 1.38855075836181641 0.661322712898254395
0.729727506637573242 -1.17211484909057617 0.539286375045776367
0.0324095152318477631 2.55594992637634277 0.676578402519226074
0.676707088947296143 2.43822360038757324 0.59037858247756958
-0.832026898860931396 2.86390471458435059 0.721528708934783936
0.705297470092773438 -1.70571815967559814 0.453182399272918701
1.19350481033325195 2.10447406768798828 0.584692478179931641
0.117097355425357819 -0.720065951347351074 0.602045118808746338
-1.22574079036712646 -1.36016881465911865 0.565068423748016357
0.964383184909820557 1.03723430633544922 0.650495469570159912
0.728383064270019531 -2.83327293395996094 0.572335302829742432
1.51615512371063232 -2.39948630332946777 0.604396343231201172
0.68096846342086792 2.79910135269165039 0.659508287906646729
0.978973746299743652 -0.742054283618927002 0.455176204442977905
-0.826680302619934082 2.85434651374816895 0.727175056934356689
-2.21067070960998535 3.10972905158996582 0.680860161781311035
0.956349015235900879 1.04275918006896973 0.6512947678565979
-0.825593352317810059 2.85955214500427246 0.726366043090820312
0.537946105003356934 -4.17566394805908203 0.788816988468170166
0.728277921676635742 2.57220673561096191 0.608291268348693848
1.63279688358306885 -1.63949358463287354 0.664780199527740479
0.331092953681945801 3.37065410614013672 0.561533987522125244
-0.955180585384368896 3.30040526390075684 0.694563150405883789
1.51186823844909668 -1.14219892024993896 0.609807252883911133
-0.815403103828430176 1.57916045188903809 0.622808218002319336
0.206832095980644226 -2.27380824089050293 0.534917175769805908
1.00639283657073975 -4.04700613021850586 0.609863102436065674
