ply
format ascii 1.0
element vertex 256
comment vertices
property float x
property float y
property float z
end_header
-1.34947574138641357 -2.72754788398742676 0.660522937774658203
-0.879005372524261475 4.35928440093994141 0.87425607442855835
0.318872332572937012 0.787509143352508545 0.557901859283447266
-1.8317718505859375 2.44689011573791504 0.734635293483734131
2.3834078311920166 -3.19268989562988281 0.958910524845123291
0.765895545482635498 -4.7161555290222168 0.855973899364471436
-1.06897187232971191 0.430065721273422241 0.575124144554138184
1.68113160133361816 3.11616301536560059 0.706117510795593262
-1.64283299446105957 2.81551170349121094 0.590513825416564941
0.799958527088165283 -2.28438472747802734 0.408626824617385864
0.616531848907470703 2.44148826599121094 0.508846879005432129
-2.15179848670959473 2.65814661979675293 0.698875784873962402
1.5656898021697998 -1.55560755729675293 0.741751194000244141
-1.07119572162628174 -0.909257709980010986 0.985598504543304443
1.03005063533782959 -4.06941032409667969 0.652741312980651855
-1.52616977691650391 0.766913712024688721 0.465925097465515137
0.137282133102416992 2.55982828140258789 0.534775733947753906
0.978183746337890625 -0.76892554759979248 0.498449385166168213
0.672289848327636719 -2.55712032318115234 0.544169127941131592
-1.80256950855255127 4.07337188720703125 0.910692274570465088
1.187103271484375 -4.19152975082397461 0.589790225028991699
-0.948607683181762695 -2.3414924144744873 0.638179659843444824
1.09024727344512939 2.01558852195739746 0.635520458221435547
0.640940308570861816 2.43360424041748047 0.549631297588348389
-1.78095829486846924 -2.08760547637939453 0.55072474479675293
1.86601412296295166 -2.00409054756164551 0.70193248987197876
1.93635141849517822 1.80714058876037598 0.951894044876098633
-2.23784208297729492 -1.32168149948120117 0.756743848323822021
-1.41386961936950684 1.49041914939880371 0.579880475997924805
0.0563433170318603516 -1.15356349945068359 0.332223087549209595
-1.13071238994598389 1.81356096267700195 0.517942249774932861
-2.56203985214233398 -1.85204958915710449 0.381834179162979126
1.36613106727600098 -1.32799863815307617 0.546952724456787109
-1.42484426498413086 2.82687091827392578 0.586471438407897949
0.251672565937042236 -2.23084425926208496 0.564154624938964844
-1.55014383792877197 -1.95455944538116455 0.552031159400939941
0.642333984375 2.49769449234008789 0.5580330491065979
-0.977082371711730957 1.02352869510650635 0.567917048931121826
0.335286438465118408 -1.14938104152679443 0.442317038774490356
0.0669070780277252197 2.59645748138427734 0.716715335845947266
0.972583293914794922 1.06338071823120117 0.675612211227416992
1.91376113891601562 -1.46879363059997559 0.762763619422912598
1.79668545722961426 -3.65489292144775391 0.720120608806610107
0.665030241012573242 -4.11653518676757812 0.66516721248626709
0.406951248645782471 -3.40894842147827148 0.603726983070373535
0.783358395099639893 3.20439958572387695 0.553357839584350586
-2.54337739944458008 0.941299319267272949 0.880003988742828369
0.848420858383178711 2.60232257843017578 0.558221101760864258
0.775662899017333984 -2.23833608627319336 0.452447324991226196
-1.34882569313049316 -2.80262231826782227 0.677095413208007812
0.914719641208648682 -0.671128690242767334 0.473015934228897095
1.1100088357925415 -1.90428578853607178 0.525298178195953369
-1.97310400009155273 0.87449723482131958 0.564124822616577148
0.745699286460876465 2.93164205551147461 0.489924311637878418
-2.20953845977783203 -1.91950297355651855 0.62649834156036377
-0.922892093658447266 -1.5095902681350708 0.667391061782836914
0.504607141017913818 -0.213905617594718933 0.549647331237792969
-0.153121322393417358 3.55679059028625488 0.867331802845001221
-0.672574043273925781 -1.12019479274749756 0.393006235361099243
-1.27984809875488281 2.84284400939941406 0.59368973970413208
-0.748159170150756836 0.863684773445129395 0.596316814422607422
-1.56855535507202148 1.02480268478393555 0.530842363834381104
0.526392996311187744 -1.43742060661315918 0.573315560817718506
0.248484164476394653 -0.380052149295806885 0.485137909650802612
-1.27308332920074463 4.14435195922851562 0.80380713939666748
1.5170438289642334 1.89817118644714355 0.694714844226837158
-1.52634251117706299 1.37867057323455811 0.630571842193603516
0.468863129615783691 -2.41515374183654785 0.467040359973907471
-1.53819417953491211 2.82273244857788086 0.586031436920166016
-0.279780566692352295 3.40107297897338867 0.791617512702941895
0.90472942590713501 -1.43733561038970947 0.594949185848236084
-0.504699647426605225 2.12779903411865234 0.603666901588439941
0.523643016815185547 3.06982135772705078 0.485760867595672607
0.619444370269775391 2.91190862655639648 0.622332632541656494
-1.44072616100311279 1.07880318164825439 0.519945740699768066
0.0461751371622085571 1.95069670677185059 0.697086334228515625
1.40899038314819336 -4.80489158630371094 0.785361289978027344
1.0115973949432373 -0.891725301742553711 0.503868222236633301
0.533704698085784912 -4.12723350524902344 0.740053772926330566
-1.53313302993774414 2.83356881141662598 0.511699140071868896
0.707901597023010254 -2.77245879173278809 0.596340000629425049
-2.23827743530273438 0.73258209228515625 0.734255015850067139
0.932537317276000977 -2.03632497787475586 0.392846345901489258
0.757426619529724121 3.18289875984191895 0.425918549299240112
0.961021482944488525 -0.724378764629364014 0.419680267572402954
1.01141619682312012 2.04799985885620117 0.544818401336669922
0.229557961225509644 -1.35408651828765869 0.414661794900894165
0.179059550166130066 -0.292864888906478882 0.570665836334228516
-1.4714202880859375 0.759658217430114746 0.554838240146636963
-1.45332109928131104 -1.47989094257354736 0.677200913429260254
1.13723075389862061 -3.04826164245605469 0.571469902992248535
2.38579630851745605 -2.78542590141296387 0.760749876499176025
-1.11992037296295166 0.652166485786437988 0.576153457164764404
-2.36489653587341309 -1.25843119621276855 0.353782057762145996
1.22371399402618408 -3.12233567237854004 0.474505364894866943
0.75171196460723877 -0.875534296035766602 0.494400441646575928
0.780525863170623779 -2.28093290328979492 0.436972826719284058
1.60771560668945312 -1.79046070575714111 0.646615445613861084
1.18774843215942383 2.9233698844909668 0.655386090278625488
0.454532444477081299 -1.16790366172790527 0.267103999853134155
0.786071181297302246 2.58694195747375488 0.660841107368469238
-1.43685066699981689 -2.24362730979919434 0.583386063575744629
-0.870400309562683105 2.53080511093139648 0.675682246685028076
-1.46500313282012939 0.77266460657119751 0.516733229160308838
1.96276140213012695 -3.34088516235351562 0.879692912101745605
1.22610151767730713 3.09526228904724121 0.803518295288085938
-1.68557584285736084 -1.10568571090698242 0.674378752708435059
1.09900283813476562 -1.48505651950836182 0.495153307914733887
-0.894906044006347656 1.19145333766937256 0.625069022178649902
-1.52661252021789551 2.31130170822143555 0.689999878406524658
-0.933641552925109863 3.99777483940124512 0.632621169090270996
1.08712363243103027 1.0824894905090332 0.518274962902069092
1.64888238906860352 -0.726674675941467285 0.695107340812683105
-1.64783310890197754 -2.14619159698486328 0.622866988182067871
-2.25747871398925781 2.70882940292358398 0.775324344635009766
-1.2281341552734375 -2.19253873825073242 0.443199485540390015
1.51459956169128418 1.95321774482727051 0.697879314422607422
1.56679975986480713 -2.35593342781066895 0.649516940116882324
1.05164968967437744 -4.07320594787597656 0.622761905193328857
0.652407944202423096 2.40365815162658691 0.545791804790496826
0.954418957233428955 2.52196216583251953 0.5669516921043396
-1.5098717212677002 0.939645826816558838 0.502544879913330078
-0.310876250267028809 1.91040873527526855 0.612448751926422119
-0.829904437065124512 2.19321012496948242 0.637627720832824707
-0.546698391437530518 2.96366238594055176 0.58804023265838623
-1.24720358848571777 -2.74784016609191895 0.745865106582641602
-1.76538968086242676 -2.03650951385498047 0.634783506393432617
-0.0038067251443862915 3.12019038200378418 0.770022928714752197
-1.52624988555908203 2.8068394660949707 0.610053420066833496
0.749797224998474121 2.46202635765075684 0.521981716156005859
-1.30287778377532959 2.62217044830322266 0.56952512264251709
0.272276312112808228 -2.31293702125549316 0.551986098289489746
-1.40975308418273926 1.02786970138549805 0.562611699104309082
1.47249424457550049 -1.49660491943359375 0.70593869686126709
0.0476363897323608398 -0.97335207462310791 0.573076248168945312
-0.184340953826904297 2.87642145156860352 0.601939260959625244
-1.15950536727905273 1.41221714019775391 0.683892548084259033
0.946171581745147705 -0.784256041049957275 0.422503352165222168
0.693789243698120117 -1.63269913196563721 0.4875621497631073
0.391647040843963623 2.44706249237060547 0.554391741752624512
0.802829623222351074 -2.17581772804260254 0.393710732460021973
-2.22635054588317871 2.72822117805480957 0.824685037136077881
1.86446118354797363 -3.29076027870178223 0.78703618049621582
-1.54187893867492676 2.80546069145202637 0.571498274803161621
1.97967743873596191 -0.983220994472503662 0.671708881855010986
0.937170863151550293 1.05038285255432129 0.667828202247619629
-1.02924633026123047 -1.91156208515167236 0.673125565052032471
-1.59148752689361572 0.919156312942504883 0.533605754375457764
1.61880576610565186 -0.9818267822265625 0.67782890796661377
-2.25765728950500488 0.694532394409179688 0.73149573802947998
-2.29169130325317383 1.10113024711608887 0.80719679594039917
-1.31376898288726807 -1.48454475402832031 0.666632413864135742
0.41854935884475708 -1.07462739944458008 0.421871036291122437
-1.27733075618743896 -2.90447378158569336 0.700092434883117676
-1.44275140762329102 0.714639782905578613 0.461327075958251953
1.26513946056365967 2.53425145149230957 0.751298427581787109
-1.68331360816955566 4.08401012420654297 0.839630246162414551
0.0697475820779800415 2.90147805213928223 0.696126103401184082
0.010506853461265564 1.97982239723205566 0.694742560386657715
-1.55995345115661621 2.9787440299987793 0.657951474189758301
-3.00435018539428711 -1.53557193279266357 0.325071007013320923
-0.0876313447952270508 -3.88161945343017578 0.708302319049835205
1.10962915420532227 -4.07545757293701172 0.681295454502105713
0.932581305503845215 -0.770247697830200195 0.452802300453186035
-0.834446430206298828 2.87519240379333496 0.740452587604522705
0.916344821453094482 3.07835865020751953 0.589840233325958252
0.682725310325622559 -1.46542775630950928 0.462334513664245605
0.158154264092445374 -0.344327241182327271 0.563592314720153809
-1.49760699272155762 1.42213284969329834 0.64742743968963623
0.219172835350036621 -1.69961667060852051 0.471685558557510376
0.940288305282592773 -0.196032881736755371 0.642276465892791748
0.945610642433166504 -3.79247474670410156 0.587316989898681641
0.214985370635986328 0.74228966236114502 0.555487513542175293
-1.01647388935089111 0.993958413600921631 0.478601366281509399
-0.00601246953010559082 3.57560515403747559 0.812751412391662598
1.49162781238555908 -2.30705881118774414 0.587499141693115234
0.0487441197037696838 2.67562675476074219 0.541642546653747559
1.83391284942626953 2.04088354110717773 1.02792119979858398
-0.786122560501098633 0.840122878551483154 0.623810887336730957
-1.58427155017852783 2.7989802360534668 0.563337862491607666
1.68551754951477051 1.80710065364837646 0.863238811492919922
0.674550652503967285 -2.80671834945678711 0.557583332061767578
-0.937529563903808594 3.10924530029296875 0.584958732128143311
-0.805529475212097168 0.834222197532653809 0.550580084323883057
-1.42420303821563721 2.75844550132751465 0.658467292785644531
0.950937390327453613 -2.45008134841918945 0.556377053260803223
0.532403230667114258 -1.48349380493164062 0.591774404048919678
0.198481813073158264 -3.23660016059875488 0.543221771717071533
0.60075223445892334 2.55267214775085449 0.608996331691741943
-0.95927053689956665 4.45359230041503906 0.883124589920043945
0.882433414459228516 -4.08266305923461914 0.744914412498474121
0.846270561218261719 -2.2765653133392334 0.556384623050689697
-1.2508014440536499 -2.40844058990478516 0.581912100315093994
-1.22679674625396729 2.33840703964233398 0.543171703815460205
1.83644187450408936 -1.73355591297149658 0.992764592170715332
-1.33421909809112549 -2.15365409851074219 0.605138838291168213
0.739513039588928223 -4.45219230651855469 0.810538589954376221
-0.522664189338684082 -1.34684467315673828 0.475291669368743896
0.363614737987518311 -2.66353654861450195 0.582619190216064453
0.859131753444671631 2.64938974380493164 0.495658397674560547
0.759887039661407471 2.53085184097290039 0.577477455139160156
-1.42784285545349121 -1.73397433757781982 0.730063855648040771
1.91798949241638184 -2.43663549423217773 0.665241777896881104
0.887269198894500732 -2.30329561233520508 0.472204536199569702
-2.56864595413208008 1.41688895225524902 0.892706632614135742
0.493670165538787842 2.86327147483825684 0.459584236145019531
0.889326870441436768 1.88570213317871094 0.537530422210693359
-1.47809147834777832 -1.89502966403961182 0.558937549591064453
-1.10489308834075928 -0.0994416996836662292 0.478898614645004272
1.08035910129547119 -0.442978203296661377 0.528127670288085938
0.513788223266601562 -4.16240644454956055 0.793753385543823242
-1.47694778442382812 1.42553496360778809 0.63639366626739502
-1.28264987468719482 2.6150212287902832 0.566241323947906494
-1.46779441833496094 0.770896553993225098 0.47361832857131958
0.681201457977294922 2.75772762298583984 0.704861104488372803
1.25825262069702148 3.05215191841125488 0.800532698631286621
1.21726441383361816 -0.770332515239715576 0.563450217247009277
0.891020238399505615 -0.253007799386978149 0.616202712059020996
0.294741570949554443 -0.475358426570892334 0.405224710702896118
0.819566309452056885 -2.37350606918334961 0.425726264715194702
0.109665900468826294 -0.400305807590484619 0.561230838298797607
-2.64716958999633789 -1.03152799606323242 0.498289674520492554
0.361430734395980835 -0.974149942398071289 0.472150295972824097
-1.65927302837371826 0.999343514442443848 0.53165137767791748
1.52312636375427246 1.95583236217498779 0.697912156581878662
1.37114834785461426 2.65453195571899414 0.729848861694335938
0.970248103141784668 3.41568803787231445 0.431859046220779419
-0.875877082347869873 4.35961818695068359 0.903325974941253662
0.772271156311035156 -1.18421375751495361 0.436101853847503662
-1.13033568859100342 1.39362931251525879 0.599867820739746094
0.725724577903747559 -1.19169044494628906 0.460015326738357544
0.0091821327805519104 2.47502040863037109 0.714347958564758301
0.758298516273498535 2.29409646987915039 0.571794867515563965
-0.852707624435424805 3.0195622444152832 0.536324858665466309
0.720727622509002686 -1.68822765350341797 0.378651231527328491
1.18886518478393555 2.14397644996643066 0.534204006195068359
0.157401591539382935 -0.739134609699249268 0.520479857921600342
-1.13193941116333008 -1.36729776859283447 0.537244677543640137
1.01359415054321289 1.05836832523345947 0.669268429279327393
0.794836640357971191 -2.83914732933044434 0.587467789649963379
1.54680001735687256 -2.40403366088867188 0.639144301414489746
0.695375025272369385 2.90324544906616211 0.686663389205932617
0.885181188583374023 -0.840387582778930664 0.523668885231018066
-0.816086709499359131 2.82973504066467285 0.769267499446868896
-2.21634221076965332 3.08987951278686523 0.678409576416015625
0.919895589351654053 1.01900434494018555 0.656595945358276367
-0.81302344799041748 2.89885282516479492 0.716355562210083008
0.540733993053436279 -4.19750738143920898 0.714383244514465332
0.600989460945129395 2.75159907341003418 0.551884710788726807
1.55701243877410889 -1.56807279586791992 0.489504784345626831
0.326002806425094604 3.37385892868041992 0.511628985404968262
-0.954329252243041992 3.29610514640808105 0.626865029335021973
1.5483628511428833 -1.17185819149017334 0.632227897644042969
-0.8110770583152771 1.59171509742736816 0.562352180480957031
0.0608877241611480713 -2.38658761978149414 0.453025341033935547
1.01570522785186768 -3.92946052551269531 0.72716975212097168
