ply
format ascii 1.0
element vertex 110
comment vertices
property float x
property float y
property float z
end_header
-0.434142082929611206 1.95152771472930908 -1.21072900295257568
1.08808219432830811 2.62935900688171387 -1.10559356212615967
0.026482217013835907 2.73391842842102051 -1.16395401954650879
0.218982920050621033 1.35807108879089355 -1.09681177139282227
0.184586286544799805 2.94031715393066406 -1.17984378337860107
-1.09166467189788818 2.46135210990905762 -1.09717118740081787
-0.279693543910980225 3.91170954704284668 -1.08092951774597168
0.176824808120727539 2.55481266975402832 -1.15101253986358643
1.10013163089752197 2.61488914489746094 -1.06738877296447754
-0.12995833158493042 2.39997315406799316 -1.19233965873718262
0.0718733519315719604 2.98266506195068359 -1.17272329330444336
0.748148977756500244 3.55866432189941406 -1.13403153419494629
0.0512545108795166016 2.68119502067565918 -1.18312084674835205
0.684824228286743164 2.17856788635253906 -1.10778224468231201
0.180439889430999756 1.39222097396850586 -1.12263047695159912
1.10990810394287109 2.6185297966003418 -1.08532357215881348
-0.317169725894927979 2.21224474906921387 -1.21586930751800537
-0.282089591026306152 2.28752255439758301 -1.16811633110046387
-0.3863564133644104 3.83737349510192871 -1.11405181884765625
0.756373107433319092 3.53586149215698242 -1.11082649230957031
0.174204826354980469 1.40625441074371338 -1.10755765438079834
-1.09532630443572998 2.47346782684326172 -1.05760741233825684
0.0475245118141174316 2.76835536956787109 -1.16688263416290283
0.67851632833480835 2.20555639266967773 -1.12324428558349609
0.0873394608497619629 2.68598055839538574 -1.19320487976074219
0.677692174911499023 2.18070411682128906 -1.10129940509796143
0.628217875957489014 2.15909504890441895 -1.12287819385528564
1.08512318134307861 2.62800836563110352 -1.05785572528839111
-0.236330077052116394 2.12894368171691895 -1.20798277854919434
-0.313927680253982544 3.50987029075622559 -1.15066945552825928
-0.218746975064277649 2.29045414924621582 -1.18766748905181885
0.201157957315444946 1.35286808013916016 -1.10943341255187988
-0.174235373735427856 2.52412295341491699 -1.16212522983551025
0.725175857543945312 3.55532097816467285 -1.10991084575653076
-0.550094187259674072 1.8923412561416626 -1.17190468311309814
1.10066330432891846 2.63661670684814453 -1.09554755687713623
-1.08905231952667236 2.45733189582824707 -1.06317234039306641
0.132765144109725952 2.88254308700561523 -1.16103768348693848
0.752164661884307861 3.55225849151611328 -1.11667907238006592
-0.294706553220748901 3.91325736045837402 -1.1051105260848999
0.101442605257034302 2.80428934097290039 -1.17970633506774902
-1.09627199172973633 2.46482014656066895 -1.1079481840133667
0.203412830829620361 1.35353446006774902 -1.12843811511993408
0.693833708763122559 2.18696403503417969 -1.1021040678024292
-0.436481237411499023 2.04493951797485352 -1.19909405708312988
0.676676094532012939 2.19831490516662598 -1.12824571132659912
-0.347384363412857056 1.9643477201461792 -1.19184362888336182
1.09325075149536133 2.65871572494506836 -1.10056853294372559
1.07077503204345703 2.66578006744384766 -1.07167470455169678
1.09080111980438232 2.62199616432189941 -1.07625961303710938
-0.0480872094631195068 2.63082027435302734 -1.17171323299407959
0.216316685080528259 1.49309754371643066 -1.07243490219116211
0.0604509711265563965 2.69989895820617676 -1.18452227115631104
-1.07065892219543457 2.47231769561767578 -1.11555147171020508
0.197996661067008972 1.374916672706604 -1.11430740356445312
-1.0970686674118042 2.46280145645141602 -1.10336494445800781
0.762313604354858398 3.52728533744812012 -1.11363816261291504
0.0360513031482696533 2.59254670143127441 -1.17829692363739014
-0.0590751655399799347 2.26280832290649414 -1.1907951831817627
0.0241016969084739685 2.62081384658813477 -1.17257249355316162
-0.0998489633202552795 2.35362935066223145 -1.17071104049682617
0.103426538407802582 2.77189016342163086 -1.17536163330078125
0.746127486228942871 3.5425105094909668 -1.10280144214630127
-0.463841855525970459 2.02880477905273438 -1.2192758321762085
0.752185344696044922 3.54623556137084961 -1.11922872066497803
0.690044999122619629 2.21403694152832031 -1.13134980201721191
-0.300486296415328979 3.92661428451538086 -1.06583619117736816
0.691048979759216309 2.19187092781066895 -1.08709526062011719
0.0208283476531505585 2.76899003982543945 -1.16726446151733398
0.0187551900744438171 2.68259096145629883 -1.17922163009643555
0.0345816314220428467 2.58726382255554199 -1.19333529472351074
0.978661179542541504 2.50108027458190918 -1.10357272624969482
-0.379322648048400879 2.14480733871459961 -1.18274235725402832
0.748855769634246826 3.53547978401184082 -1.12166392803192139
0.307217299938201904 2.74183273315429688 -1.13393139839172363
-0.276919007301330566 3.91056632995605469 -1.0913543701171875
0.676456987857818604 2.18402314186096191 -1.10967791080474854
1.07843148708343506 2.65326976776123047 -1.0928504467010498
0.681726932525634766 2.21365809440612793 -1.07851743698120117
0.100023284554481506 2.75717902183532715 -1.1807790994644165
0.685421407222747803 2.20456457138061523 -1.12827908992767334
0.674096465110778809 2.18744111061096191 -1.10730922222137451
0.679468393325805664 2.17813706398010254 -1.09794259071350098
-0.381202459335327148 2.40895414352416992 -1.15353620052337646
1.1056283712387085 2.61537790298461914 -1.06528353691101074
-0.0159574896097183228 2.9083399772644043 -1.17700624465942383
0.692273557186126709 2.18739032745361328 -1.11145246028900146
0.0716180205345153809 2.64291763305664062 -1.19066309928894043
0.196319758892059326 1.36254620552062988 -1.11589086055755615
-1.08921205997467041 2.46482419967651367 -1.08656525611877441
1.08774256706237793 2.63796019554138184 -1.05805778503417969
0.0944893434643745422 2.83586359024047852 -1.16857349872589111
-0.29885631799697876 2.06885242462158203 -1.20187664031982422
0.206677109003067017 1.35158836841583252 -1.1221163272857666
-0.123052641749382019 2.42175579071044922 -1.1851726770401001
0.013787783682346344 3.0751495361328125 -1.17115128040313721
-0.257348716259002686 2.09769845008850098 -1.1954803466796875
0.753583371639251709 3.53920745849609375 -1.10939741134643555
0.679140746593475342 2.18035316467285156 -1.09749102592468262
-0.173613443970680237 2.30483889579772949 -1.20028913021087646
-0.265926450490951538 2.22724795341491699 -1.16829466819763184
-0.409791827201843262 2.14911699295043945 -1.1948397159576416
0.180875509977340698 1.40553605556488037 -1.10383343696594238
-0.932329952716827393 2.04920291900634766 -1.14893424510955811
1.12197542190551758 2.63965606689453125 -1.07888245582580566
-0.0552401691675186157 2.32161879539489746 -1.1870654821395874
0.571581542491912842 2.4385380744934082 -1.14367282390594482
-0.171924620866775513 2.52036428451538086 -1.14966785907745361
0.179601475596427917 1.40894126892089844 -1.11166608333587646
-0.272063404321670532 3.91206097602844238 -1.09645557403564453
