ply
format ascii 1.0
element vertex 256
comment vertices
property float x
property float y
property float z
end_header
0.411128133535385132 3.39444994926452637 -1.05058014392852783
-0.434142082929611206 1.95152771472930908 -1.21072900295257568
-2.45839500427246094 1.64223372936248779 -0.799049258232116699
-0.671986222267150879 3.08717203140258789 -1.15281379222869873
1.08808219432830811 2.62935900688171387 -1.10559356212615967
0.17533479630947113 5.01053333282470703 -0.189115092158317566
0.026482217013835907 2.73391842842102051 -1.16395401954650879
-2.18531131744384766 2.58913445472717285 -1.14237797260284424
1.31807935237884521 3.55865240097045898 -1.11924922466278076
0.857936203479766846 4.36491680145263672 -0.498496919870376587
0.218982920050621033 1.35807108879089355 -1.09681177139282227
-1.75556707382202148 3.10303616523742676 -1.24351835250854492
0.184586286544799805 2.94031715393066406 -1.17984378337860107
-1.09166467189788818 2.46135210990905762 -1.09717118740081787
-0.881747603416442871 2.8263401985168457 -0.951662063598632812
-0.279693543910980225 3.91170954704284668 -1.08092951774597168
0.845233440399169922 4.5354771614074707 -0.258051007986068726
0.176824808120727539 2.55481266975402832 -1.15101253986358643
-0.432245910167694092 3.93963813781738281 -0.800594031810760498
1.30781364440917969 4.28323507308959961 -0.976422309875488281
1.10013163089752197 2.61488914489746094 -1.06738877296447754
-0.12995833158493042 2.39997315406799316 -1.19233965873718262
2.19486904144287109 1.18727517127990723 -1.17899477481842041
2.31827688217163086 3.76290583610534668 -1.08316385746002197
-1.97851455211639404 2.71952080726623535 -1.04071807861328125
1.11749124526977539 3.0267176628112793 -1.10753893852233887
0.0718733519315719604 2.98266506195068359 -1.17272329330444336
0.748148977756500244 3.55866432189941406 -1.13403153419494629
-1.82237076759338379 4.22488927841186523 -1.11553442478179932
-0.125549480319023132 2.17034387588500977 -1.28690314292907715
0.0512545108795166016 2.68119502067565918 -1.18312084674835205
0.512426435947418213 4.26358985900878906 -0.910852432250976562
0.591057479381561279 3.87177801132202148 -0.978331804275512695
-1.07070183753967285 3.57343029975891113 -1.20919883251190186
-1.36372435092926025 0.908910274505615234 -1.2660365104675293
0.684824228286743164 2.17856788635253906 -1.10778224468231201
0.180439889430999756 1.39222097396850586 -1.12263047695159912
-1.16077637672424316 3.24221372604370117 -0.759824693202972412
-1.71177315711975098 2.74905490875244141 -1.14592885971069336
1.18533837795257568 4.12485694885253906 0.119449526071548462
1.10990810394287109 2.6185297966003418 -1.08532357215881348
-0.317169725894927979 2.21224474906921387 -1.21586930751800537
0.84153825044631958 4.07219600677490234 -0.896862506866455078
-0.282089591026306152 2.28752255439758301 -1.16811633110046387
-0.3863564133644104 3.83737349510192871 -1.11405181884765625
0.648354887962341309 3.87586426734924316 -1.09581542015075684
0.756373107433319092 3.53586149215698242 -1.11082649230957031
0.174204826354980469 1.40625441074371338 -1.10755765438079834
-1.16375195980072021 2.64888334274291992 -0.764153778553009033
-1.09532630443572998 2.47346782684326172 -1.05760741233825684
0.0475245118141174316 2.76835536956787109 -1.16688263416290283
1.5115351676940918 4.74904346466064453 -0.587741434574127197
0.389733195304870605 2.10775423049926758 -1.15026640892028809
0.368429243564605713 3.56832075119018555 -0.483827710151672363
-1.20379412174224854 2.1013636589050293 -1.28636252880096436
-1.14765501022338867 3.81588649749755859 -1.22502028942108154
1.35637772083282471 4.19998502731323242 -0.876305282115936279
0.67851632833480835 2.20555639266967773 -1.12324428558349609
0.0873394608497619629 2.68598055839538574 -1.19320487976074219
0.677692174911499023 2.18070411682128906 -1.10129940509796143
-3.08031249046325684 2.39319372177124023 -1.05781388282775879
-0.854703128337860107 3.43622398376464844 -1.09194743633270264
0.628217875957489014 2.15909504890441895 -1.12287819385528564
1.08512318134307861 2.62800836563110352 -1.05785572528839111
-0.85468590259552002 4.29478931427001953 -0.442817509174346924
-0.236330077052116394 2.12894368171691895 -1.20798277854919434
1.45289623737335205 2.43406128883361816 -1.18291950225830078
-2.59334492683410645 -0.0978643894195556641 -1.13644063472747803
0.458527028560638428 1.78129935264587402 -1.3370358943939209
0.905729889869689941 4.01623678207397461 -0.990771055221557617
2.13985729217529297 2.91624212265014648 -0.44220319390296936
-0.742385268211364746 4.19056940078735352 -0.892973542213439941
-0.313927680253982544 3.50987029075622559 -1.15066945552825928
0.427951157093048096 3.65628695487976074 -0.998180747032165527
-1.30390059947967529 3.40872526168823242 -1.19306528568267822
-0.999997913837432861 3.73628139495849609 -1.17707812786102295
-0.218746975064277649 2.29045414924621582 -1.18766748905181885
0.201157957315444946 1.35286808013916016 -1.10943341255187988
-0.174235373735427856 2.52412295341491699 -1.16212522983551025
0.725175857543945312 3.55532097816467285 -1.10991084575653076
-0.550094187259674072 1.8923412561416626 -1.17190468311309814
1.17649269104003906 4.39846563339233398 -0.765514731407165527
-1.27166354656219482 3.75542163848876953 -1.19385504722595215
1.10066330432891846 2.63661670684814453 -1.09554755687713623
-1.08905231952667236 2.45733189582824707 -1.06317234039306641
-0.176193565130233765 4.35770606994628906 -0.678244948387145996
0.132765144109725952 2.88254308700561523 -1.16103768348693848
0.752164661884307861 3.55225849151611328 -1.11667907238006592
1.84795784950256348 4.04676628112792969 -1.02266013622283936
0.661241710186004639 4.04528665542602539 -0.920683443546295166
-0.899942219257354736 3.98249197006225586 -0.464126050472259521
-1.05832922458648682 3.52802324295043945 -1.15767288208007812
-0.535523414611816406 4.66554498672485352 -1.00734126567840576
-0.294706553220748901 3.91325736045837402 -1.1051105260848999
0.101442605257034302 2.80428934097290039 -1.17970633506774902
1.14942359924316406 3.98686957359313965 -0.758800745010375977
-1.09627199172973633 2.46482014656066895 -1.1079481840133667
-1.51071298122406006 2.42155170440673828 -1.09975039958953857
1.18111205101013184 4.37324094772338867 -0.93471294641494751
0.411687374114990234 3.43262410163879395 -1.04436576366424561
-0.849939584732055664 1.65600204467773438 -0.987275838851928711
0.203412830829620361 1.35353446006774902 -1.12843811511993408
0.427608668804168701 2.46450948715209961 -1.24060249328613281
0.693833708763122559 2.18696403503417969 -1.1021040678024292
-0.745078444480895996 2.27936363220214844 -1.04755842685699463
-0.436481237411499023 2.04493951797485352 -1.19909405708312988
0.676676094532012939 2.19831490516662598 -1.12824571132659912
-0.347384363412857056 1.9643477201461792 -1.19184362888336182
1.09325075149536133 2.65871572494506836 -1.10056853294372559
0.415522307157516479 4.87062168121337891 -0.486306577920913696
1.07077503204345703 2.66578006744384766 -1.07167470455169678
-0.540043950080871582 4.61998748779296875 -0.370811164379119873
1.09080111980438232 2.62199616432189941 -1.07625961303710938
1.11936438083648682 3.89795160293579102 -0.345175564289093018
-0.640321314334869385 1.53064525127410889 -1.3900223970413208
-1.28453314304351807 2.88178753852844238 -0.676360964775085449
-0.820513606071472168 3.67165613174438477 -0.721009671688079834
-0.0480872094631195068 2.63082027435302734 -1.17171323299407959
0.216316685080528259 1.49309754371643066 -1.07243490219116211
0.0604509711265563965 2.69989895820617676 -1.18452227115631104
-1.07065892219543457 2.47231769561767578 -1.11555147171020508
0.197996661067008972 1.374916672706604 -1.11430740356445312
1.8138880729675293 3.54072809219360352 -0.615836083889007568
-1.0970686674118042 2.46280145645141602 -1.10336494445800781
1.05988907814025879 4.09957981109619141 -0.727369725704193115
0.762313604354858398 3.52728533744812012 -1.11363816261291504
0.0360513031482696533 2.59254670143127441 -1.17829692363739014
-1.06891763210296631 3.58553671836853027 -1.14824414253234863
-0.0590751655399799347 2.26280832290649414 -1.1907951831817627
0.859135031700134277 3.00167226791381836 -1.05443739891052246
-1.6335606575012207 4.6220550537109375 -1.01548910140991211
0.0241016969084739685 2.62081384658813477 -1.17257249355316162
-0.0998489633202552795 2.35362935066223145 -1.17071104049682617
0.788809061050415039 2.19615936279296875 -1.16750073432922363
-1.37387728691101074 4.04872703552246094 -1.01904737949371338
0.103426538407802582 2.77189016342163086 -1.17536163330078125
-1.98863077163696289 3.63737058639526367 -0.96644359827041626
0.746127486228942871 3.5425105094909668 -1.10280144214630127
-0.463841855525970459 2.02880477905273438 -1.2192758321762085
1.20101487636566162 4.11061573028564453 -1.01261460781097412
0.704748570919036865 3.70689630508422852 -0.911472618579864502
-0.657704830169677734 3.39932918548583984 -1.20233654975891113
-0.535047352313995361 3.78991270065307617 -0.673230588436126709
0.856135010719299316 4.24066925048828125 -0.99206995964050293
0.990778863430023193 4.13875055313110352 -0.973533153533935547
0.752185344696044922 3.54623556137084961 -1.11922872066497803
-0.871641099452972412 3.67520761489868164 -1.15549468994140625
-0.737980484962463379 1.68470931053161621 -1.28185272216796875
0.115250453352928162 4.09072685241699219 -0.860276579856872559
0.690044999122619629 2.21403694152832031 -1.13134980201721191
-0.300486296415328979 3.92661428451538086 -1.06583619117736816
0.691048979759216309 2.19187092781066895 -1.08709526062011719
0.0208283476531505585 2.76899003982543945 -1.16726446151733398
0.437309950590133667 5.09836721420288086 -0.127152815461158752
0.00439752638339996338 2.32554864883422852 -1.29468226432800293
0.0187551900744438171 2.68259096145629883 -1.17922163009643555
0.0345816314220428467 2.58726382255554199 -1.19333529472351074
1.08180618286132812 3.8232274055480957 -1.0630033016204834
1.07576918601989746 4.19526386260986328 -0.387713164091110229
0.978661179542541504 2.50108027458190918 -1.10357272624969482
0.391915351152420044 3.32542896270751953 -1.02372312545776367
-0.379322648048400879 2.14480733871459961 -1.18274235725402832
0.748855769634246826 3.53547978401184082 -1.12166392803192139
0.307217299938201904 2.74183273315429688 -1.13393139839172363
0.622617185115814209 3.00142002105712891 -1.08181476593017578
-1.20263516902923584 1.81981897354125977 -1.25488996505737305
-1.41407561302185059 4.06915092468261719 -1.13123953342437744
-0.276919007301330566 3.91056632995605469 -1.0913543701171875
0.676456987857818604 2.18402314186096191 -1.10967791080474854
0.810182750225067139 4.35725688934326172 -0.426049590110778809
-2.88267326354980469 1.12290787696838379 -0.890890777111053467
1.28050315380096436 4.25477838516235352 -0.877831697463989258
0.35790860652923584 3.51531672477722168 -1.11355364322662354
-0.169644251465797424 3.3469243049621582 -1.19982373714447021
1.40999555587768555 4.2572941780090332 0.0324639752507209778
0.907522916793823242 3.86051821708679199 -1.03516781330108643
1.07843148708343506 2.65326976776123047 -1.0928504467010498
0.681726932525634766 2.21365809440612793 -1.07851743698120117
1.05886936187744141 3.51127266883850098 -1.07485806941986084
0.100023284554481506 2.75717902183532715 -1.1807790994644165
-0.583127439022064209 3.76584839820861816 -1.07370913028717041
-1.69842195510864258 0.982069849967956543 -1.07046687602996826
-1.91724395751953125 0.0668737888336181641 -1.16434335708618164
0.685421407222747803 2.20456457138061523 -1.12827908992767334
0.674096465110778809 2.18744111061096191 -1.10730922222137451
0.679468393325805664 2.17813706398010254 -1.09794259071350098
-1.03903687000274658 3.41686511039733887 -0.637057185173034668
-0.381202459335327148 2.40895414352416992 -1.15353620052337646
1.1056283712387085 2.61537790298461914 -1.06528353691101074
-1.31314384937286377 3.21705746650695801 -1.22135806083679199
-0.0159574896097183228 2.9083399772644043 -1.17700624465942383
-0.328012704849243164 2.54043960571289062 -1.14336907863616943
0.482167184352874756 4.56022262573242188 -0.0859218984842300415
-2.81102848052978516 1.92267489433288574 -0.950729310512542725
1.69315016269683838 4.21181440353393555 -1.01669454574584961
0.692273557186126709 2.18739032745361328 -1.11145246028900146
0.0716180205345153809 2.64291763305664062 -1.19066309928894043
0.90358734130859375 3.27650189399719238 -1.08432745933532715
-1.16541540622711182 2.47722768783569336 -0.819022834300994873
0.196319758892059326 1.36254620552062988 -1.11589086055755615
0.462726175785064697 4.72201204299926758 -0.145286798477172852
-1.08921205997467041 2.46482419967651367 -1.08656525611877441
-1.6305546760559082 3.86153197288513184 -0.834001064300537109
1.08774256706237793 2.63796019554138184 -1.05805778503417969
0.688394665718078613 4.42746162414550781 -0.794444262981414795
0.154724776744842529 3.7180335521697998 -0.845804333686828613
0.0944893434643745422 2.83586359024047852 -1.16857349872589111
-0.29885631799697876 2.06885242462158203 -1.20187664031982422
0.416193187236785889 3.44454312324523926 -1.10379576683044434
-0.740738272666931152 2.84635114669799805 -0.756403207778930664
-1.72000980377197266 4.07466745376586914 -1.16661524772644043
0.206677109003067017 1.35158836841583252 -1.1221163272857666
0.544420003890991211 1.00409078598022461 -1.40569162368774414
-0.436101078987121582 2.77150869369506836 -1.09856927394866943
-1.19273555278778076 2.89340543746948242 -1.24382102489471436
-0.123052641749382019 2.42175579071044922 -1.1851726770401001
0.013787783682346344 3.0751495361328125 -1.17115128040313721
-1.20651030540466309 2.97415590286254883 -1.22301936149597168
-1.17042899131774902 3.63007712364196777 -1.1934438943862915
-0.257348716259002686 2.09769845008850098 -1.1954803466796875
-0.878553211688995361 2.36394572257995605 -1.12602126598358154
-0.678146600723266602 3.58029341697692871 -0.744614362716674805
-0.534057438373565674 4.77837944030761719 -0.229524999856948853
0.753583371639251709 3.53920745849609375 -1.10939741134643555
0.754024982452392578 3.69780230522155762 -1.10192489624023438
0.679140746593475342 2.18035316467285156 -1.09749102592468262
0.493987381458282471 3.71338176727294922 -0.968992829322814941
0.192039385437965393 4.53087711334228516 -0.668382823467254639
0.45480683445930481 3.42591214179992676 -1.06954574584960938
1.2922968864440918 3.36106348037719727 -0.624115228652954102
-1.30149233341217041 3.66484785079956055 -0.67210841178894043
-0.173613443970680237 2.30483889579772949 -1.20028913021087646
-1.86583936214447021 3.65082073211669922 -1.00023365020751953
-0.0941803306341171265 3.0599818229675293 -1.16233420372009277
-0.265926450490951538 2.22724795341491699 -1.16829466819763184
-1.29499447345733643 4.17064189910888672 -0.72977060079574585
1.28231394290924072 3.95010137557983398 0.0529038161039352417
-0.409791827201843262 2.14911699295043945 -1.1948397159576416
0.706829309463500977 3.96393084526062012 -0.954418063163757324
1.37367284297943115 3.17882251739501953 -0.951714158058166504
-0.0379951000213623047 2.41752433776855469 -1.01821208000183105
0.180875509977340698 1.40553605556488037 -1.10383343696594238
0.856080770492553711 3.97667503356933594 -1.0505988597869873
1.25326919555664062 3.05132436752319336 -1.11798679828643799
-0.932329952716827393 2.04920291900634766 -1.14893424510955811
0.676022529602050781 3.8029477596282959 -1.05661165714263916
-2.42063379287719727 1.35444092750549316 -0.95707249641418457
-2.16292858123779297 3.30156183242797852 -1.02591371536254883
1.12197542190551758 2.63965606689453125 -1.07888245582580566
-0.0552401691675186157 2.32161879539489746 -1.1870654821395874
-0.929582417011260986 1.67398059368133545 -0.900915741920471191
0.571581542491912842 2.4385380744934082 -1.14367282390594482
0.986469447612762451 3.98889827728271484 -0.743971586227416992
-0.171924620866775513 2.52036428451538086 -1.14966785907745361
0.179601475596427917 1.40894126892089844 -1.11166608333587646
-0.272063404321670532 3.91206097602844238 -1.09645557403564453
