ply
format ascii 1.0
element vertex 256
comment vertices
property float x
property float y
property float z
end_header
0.70387345552444458 4.00849533081054688 -0.755744040012359619
-0.391993731260299683 2.00973415374755859 -1.23400330543518066
-1.83139252662658691 3.07893085479736328 -0.489967167377471924
-0.736627578735351562 4.18792629241943359 -0.944343805313110352
1.09888792037963867 2.63223528861999512 -1.14572596549987793
0.011036798357963562 5.16984272003173828 -0.342736542224884033
-0.0103355050086975098 2.76975464820861816 -1.15675151348114014
-1.7939298152923584 2.74619269371032715 -1.14137887954711914
1.32559490203857422 3.55183291435241699 -1.14371085166931152
0.70248115062713623 4.64212751388549805 -0.42456391453742981
0.265829861164093018 1.40819275379180908 -1.05774319171905518
-1.38012456893920898 3.65248203277587891 -1.16468417644500732
0.211460292339324951 3.0141303539276123 -1.17399978637695312
-1.0551835298538208 2.43551182746887207 -1.09526264667510986
-1.00092315673828125 4.28124141693115234 -0.52883535623550415
-0.316632896661758423 3.90120124816894531 -1.09343862533569336
0.652855455875396729 4.65677213668823242 -0.212764948606491089
0.244615763425827026 2.52010059356689453 -1.23566436767578125
-0.290090709924697876 4.64949417114257812 -0.4890633225440979
1.21201205253601074 4.33290910720825195 -0.881104707717895508
1.1321113109588623 2.61616134643554688 -1.05599093437194824
-0.178974896669387817 2.41536784172058105 -1.22140538692474365
1.17004001140594482 3.72413778305053711 -0.411249518394470215
1.48581993579864502 4.15904808044433594 -0.926571130752563477
-1.67918503284454346 2.81006956100463867 -0.900882720947265625
1.15206539630889893 3.01457643508911133 -1.15644156932830811
0.0243491232395172119 3.02684569358825684 -1.17797017097473145
0.634397208690643311 3.33151102066040039 -1.23443341255187988
-1.27940225601196289 4.30584812164306641 -1.02593326568603516
0.0833069831132888794 4.14969444274902344 -0.747785210609436035
0.0624988675117492676 2.69967365264892578 -1.18222904205322266
0.410385251045227051 4.6322627067565918 -0.824618637561798096
0.576445460319519043 4.35845088958740234 -0.759327173233032227
-1.15248370170593262 3.73976659774780273 -1.22229909896850586
-1.38950967788696289 3.6324160099029541 -0.694306373596191406
0.708392083644866943 2.20346593856811523 -1.12336909770965576
0.0860355570912361145 1.45464599132537842 -1.14498770236968994
-1.09741663932800293 4.46129131317138672 -0.546836376190185547
-1.41759335994720459 3.17214202880859375 -1.0773777961730957
1.20509374141693115 4.30699634552001953 -0.170374363660812378
1.15619468688964844 2.62219667434692383 -1.10298192501068115
-0.345619916915893555 2.23517107963562012 -1.2296442985534668
0.68451303243637085 4.30577993392944336 -0.669982969760894775
-0.314512908458709717 2.36302018165588379 -1.15198945999145508
-0.480084985494613647 3.77289581298828125 -1.17012631893157959
0.77529066801071167 4.07297229766845703 -0.989438176155090332
0.733308315277099609 3.54927301406860352 -1.10985660552978516
0.130520641803741455 1.5181955099105835 -1.12814021110534668
-1.35831475257873535 3.70234489440917969 -0.434159845113754272
-1.07546687126159668 2.52449655532836914 -1.03123867511749268
-0.0204159021377563477 2.82569193840026855 -1.15277838706970215
0.855539143085479736 4.86249494552612305 -0.386359363794326782
0.626251101493835449 3.72156000137329102 -0.780392289161682129
0.0990551859140396118 4.56034231185913086 -0.318186134099960327
-1.25669968128204346 3.07136201858520508 -1.20612192153930664
-0.679498851299285889 4.46479511260986328 -1.14434516429901123
1.11549150943756104 4.30347442626953125 -0.721367597579956055
0.693831682205200195 2.33910346031188965 -1.1821286678314209
0.145911857485771179 2.68810510635375977 -1.22795891761779785
0.676191747188568115 2.20484519004821777 -1.09804165363311768
-1.72218763828277588 3.9355769157409668 -0.54582512378692627
-0.954490780830383301 4.2089381217956543 -0.837382078170776367
0.417608380317687988 2.23708724975585938 -1.18165087699890137
1.09710371494293213 2.6575319766998291 -1.04375767707824707
-0.968303561210632324 4.69889688491821289 -0.44400063157081604
-0.239728853106498718 2.1340031623840332 -1.23096323013305664
1.03586995601654053 3.82887864112854004 -0.660808563232421875
-2.05623149871826172 2.59586954116821289 -0.602129697799682617
0.192705735564231873 4.12393808364868164 -0.764736056327819824
0.803754210472106934 4.28189373016357422 -0.798434615135192871
1.44986808300018311 3.82958555221557617 -0.328244298696517944
-0.717596054077148438 4.6816253662109375 -0.731816530227661133
-0.204643100500106812 3.46945095062255859 -1.12009227275848389
0.440149068832397461 4.35602664947509766 -0.68823707103729248
-1.25807952880859375 3.60150694847106934 -1.18077600002288818
-1.02679026126861572 4.07402801513671875 -1.15019965171813965
-0.24119269847869873 2.34218049049377441 -1.18135678768157959
0.202793270349502563 1.38457608222961426 -1.07698202133178711
-0.25263175368309021 2.55515170097351074 -1.16856276988983154
0.950422227382659912 3.45434117317199707 -1.10364341735839844
-0.51635277271270752 1.98636472225189209 -1.1562340259552002
0.717388510704040527 4.70379066467285156 -0.584969043731689453
-1.22186839580535889 3.8995664119720459 -1.15385162830352783
1.12082195281982422 2.71926331520080566 -1.15091991424560547
-1.06600582599639893 2.41317129135131836 -1.02788424491882324
-0.265960752964019775 4.80280780792236328 -0.482877582311630249
0.142155885696411133 2.96849942207336426 -1.12379813194274902
0.704064726829528809 3.48664426803588867 -1.12326574325561523
1.41711521148681641 4.16651773452758789 -1.012481689453125
0.48104250431060791 4.54612207412719727 -0.733904123306274414
-0.893201589584350586 4.51776981353759766 -0.371443867683410645
-1.14811539649963379 3.64058089256286621 -1.04070937633514404
-0.539388656616210938 4.73076725006103516 -0.839483499526977539
-0.345503091812133789 3.94043588638305664 -1.1573023796081543
0.0614437274634838104 2.87686491012573242 -1.17431461811065674
0.529828786849975586 4.69101953506469727 -0.571993529796600342
-1.08373832702636719 2.47453474998474121 -1.12275946140289307
-1.5107804536819458 2.82333898544311523 -1.05942952632904053
1.13765406608581543 4.42663002014160156 -0.853294491767883301
0.630070149898529053 4.16966581344604492 -0.835442185401916504
-1.54162800312042236 3.4249873161315918 -0.484113961458206177
0.220715656876564026 1.40240883827209473 -1.12277877330780029
0.331754744052886963 4.14457988739013672 -0.646242439746856689
0.69832223653793335 2.08121371269226074 -1.1149744987487793
-1.025642991065979 4.03336715698242188 -0.578847765922546387
-0.455314546823501587 2.09846591949462891 -1.21196556091308594
0.653426647186279297 2.23788261413574219 -1.1703636646270752
-0.301088511943817139 1.97357690334320068 -1.20243406295776367
0.902633309364318848 2.59041500091552734 -1.17819070816040039
0.589351236820220947 4.77310037612915039 -0.471156090497970581
0.983895003795623779 2.71456432342529297 -1.07982087135314941
-0.67773813009262085 4.84740447998046875 -0.423528403043746948
1.10666286945343018 2.65452289581298828 -1.08211684226989746
0.815095782279968262 4.47284269332885742 -0.331875026226043701
-1.10442852973937988 3.0758056640625 -1.2169269323348999
-1.17360842227935791 4.31262063980102539 -0.414961963891983032
-0.852318763732910156 4.52272129058837891 -0.550115704536437988
-0.152799010276794434 2.6673281192779541 -1.18640351295471191
0.209324300289154053 1.67409038543701172 -1.08239269256591797
0.0782696083188056946 2.72947907447814941 -1.1722942590713501
-0.984033644199371338 2.52547240257263184 -1.14236652851104736
0.215313524007797241 1.45024120807647705 -1.11423218250274658
1.40111243724822998 3.98393845558166504 -0.520632684230804443
-1.10045933723449707 2.45336270332336426 -1.11126923561096191
0.518454015254974365 4.70581865310668945 -0.538240432739257812
0.730928957462310791 3.58869433403015137 -1.12230229377746582
0.00948327779769897461 2.59907412528991699 -1.18170833587646484
-1.12920045852661133 3.7100522518157959 -1.01149535179138184
-0.03000665083527565 2.25626063346862793 -1.21804547309875488
0.733313560485839844 4.04080677032470703 -0.650936305522918701
-1.03129458427429199 4.70576620101928711 -0.883972465991973877
-0.0187071263790130615 2.63850927352905273 -1.16351926326751709
-0.100758790969848633 2.33645796775817871 -1.19402718544006348
0.82102656364440918 3.89891433715820312 -0.629341602325439453
-1.09670376777648926 4.40969514846801758 -0.876321196556091309
0.0721710324287414551 2.82911324501037598 -1.17515289783477783
-1.29583287239074707 4.27430629730224609 -0.689722776412963867
0.789337575435638428 3.50207710266113281 -1.10433566570281982
-0.443041622638702393 2.08763217926025391 -1.24506497383117676
1.15637576580047607 4.18867397308349609 -0.954859137535095215
0.488648593425750732 4.3483123779296875 -0.573589324951171875
-0.440947562456130981 4.54957818984985352 -0.858365774154663086
-0.694305896759033203 4.56971883773803711 -0.507759690284729004
0.74631112813949585 4.35205936431884766 -0.827618241310119629
0.769589424133300781 4.32409238815307617 -0.743679702281951904
0.633310437202453613 3.32999563217163086 -1.13887286186218262
-0.895605921745300293 4.12065982818603516 -1.09574627876281738
-0.0618632733821868896 4.09445333480834961 -0.734631896018981934
0.336724758148193359 4.61922407150268555 -0.70892941951751709
0.621439158916473389 2.18386721611022949 -1.19711160659790039
-0.375038623809814453 3.93560075759887695 -1.07987499237060547
0.784969210624694824 2.30309844017028809 -1.08913624286651611
-0.0335424244403839111 2.82914018630981445 -1.14640653133392334
0.417487561702728271 5.00602817535400391 -0.211752772331237793
0.0699297189712524414 4.23033428192138672 -0.686272501945495605
-0.0268830657005310059 2.72536373138427734 -1.2048802375793457
0.00434711575508117676 2.59161233901977539 -1.22100496292114258
1.08135604858398438 3.99425411224365234 -0.962696433067321777
0.825838446617126465 4.63978481292724609 -0.414337635040283203
0.978264331817626953 2.42922639846801758 -1.16020667552947998
0.521759927272796631 4.15706586837768555 -0.825399518013000488
-0.39391028881072998 2.1942756175994873 -1.17850100994110107
0.805318236351013184 3.62532758712768555 -1.05949866771697998
0.403401613235473633 2.72963500022888184 -1.14557850360870361
0.558594584465026855 4.13414859771728516 -0.722150862216949463
-1.21344602108001709 3.41542339324951172 -0.89267122745513916
-1.19806110858917236 4.15963029861450195 -1.03754174709320068
-0.303464531898498535 3.88185787200927734 -1.11268281936645508
0.689889073371887207 2.23401546478271484 -1.12195122241973877
0.589371860027313232 4.65607404708862305 -0.42553374171257019
-2.01474356651306152 2.80056095123291016 -0.471701830625534058
1.07661247253417969 4.34083700180053711 -0.733579516410827637
0.724870026111602783 4.1070704460144043 -0.883598208427429199
0.0338001549243927002 4.49990606307983398 -0.742474675178527832
1.33779191970825195 4.31421756744384766 -0.0779583752155303955
0.973699271678924561 3.9702911376953125 -0.895164787769317627
1.00604772567749023 2.73353314399719238 -1.1355288028717041
0.740804493427276611 2.34155535697937012 -1.08527529239654541
0.855584144592285156 4.1059722900390625 -0.764473319053649902
0.0777957737445831299 2.80326557159423828 -1.19193542003631592
-0.598682641983032227 4.29401636123657227 -0.990784823894500732
-1.7974172830581665 2.938018798828125 -0.550760984420776367
-1.9659423828125 2.67307353019714355 -0.668353557586669922
0.628681182861328125 2.20278358459472656 -1.17340517044067383
0.666555643081665039 2.25116968154907227 -1.11008954048156738
0.681406080722808838 2.19523453712463379 -1.0913536548614502
-1.03733086585998535 4.37462139129638672 -0.4284859299659729
-0.34938514232635498 2.43094754219055176 -1.14247560501098633
1.14768099784851074 2.64188241958618164 -1.05288600921630859
-1.24331152439117432 3.65693402290344238 -1.17841124534606934
-0.0492317676544189453 2.95830488204956055 -1.19316303730010986
-0.913105309009552002 3.8415534496307373 -0.819931626319885254
0.121053352952003479 4.83313179016113281 -0.282456368207931519
-1.9190748929977417 3.61404728889465332 -0.588805437088012695
1.37080740928649902 4.29919958114624023 -0.961818695068359375
0.816995739936828613 2.27855587005615234 -1.15225529670715332
0.0818293541669845581 2.64415597915649414 -1.20905649662017822
0.733450829982757568 4.15983486175537109 -0.786826372146606445
-1.30137753486633301 3.82383370399475098 -0.501733541488647461
0.199072018265724182 1.41167926788330078 -1.10001122951507568
0.111436299979686737 5.04029226303100586 -0.371362268924713135
-1.0533294677734375 2.48087215423583984 -1.07979369163513184
-1.21392250061035156 4.52294206619262695 -0.672966122627258301
1.0920635461807251 2.70335721969604492 -1.06034290790557861
0.53856348991394043 4.60623550415039062 -0.649850010871887207
0.399701774120330811 4.51419162750244141 -0.552107632160186768
0.0713068321347236633 2.88784980773925781 -1.16599178314208984
-0.284625053405761719 2.07249832153320312 -1.22920906543731689
0.362676829099655151 4.34821557998657227 -0.662199914455413818
-1.03160786628723145 4.26023721694946289 -0.389726579189300537
-1.1999889612197876 4.21177959442138672 -1.10565972328186035
0.159805998206138611 1.33629763126373291 -1.09593749046325684
0.167509794235229492 4.02724218368530273 -0.777856886386871338
-0.782935261726379395 4.2056431770324707 -0.689140558242797852
-1.18819904327392578 3.51722383499145508 -1.19494879245758057
-0.151497960090637207 2.44310188293457031 -1.20650839805603027
-0.0409796684980392456 3.12368273735046387 -1.16757833957672119
-1.19179058074951172 3.49846816062927246 -1.16008973121643066
-1.21211707592010498 3.78090476989746094 -1.13054180145263672
-0.24752044677734375 2.09385037422180176 -1.21350491046905518
-1.40086114406585693 2.8216552734375 -1.0534663200378418
-0.821798086166381836 4.51218843460083008 -0.535069704055786133
-0.625090479850769043 4.96845722198486328 -0.352746278047561646
0.746082603931427002 3.55742955207824707 -1.13465142250061035
0.962406158447265625 3.79334521293640137 -1.05465579032897949
0.693122327327728271 2.2325890064239502 -1.09120345115661621
0.450692474842071533 4.3325190544128418 -0.679391622543334961
0.248927474021911621 4.74343681335449219 -0.62437206506729126
0.292972713708877563 4.429412841796875 -0.667014241218566895
1.08302068710327148 3.86491298675537109 -0.402533411979675293
-1.13055682182312012 4.61863040924072266 -0.535680949687957764
-0.172179609537124634 2.34090876579284668 -1.21314060688018799
-1.27936637401580811 4.02717351913452148 -0.78113400936126709
0.0140923112630844116 4.42928314208984375 -0.654030680656433105
-0.300136715173721313 2.26131987571716309 -1.14490580558776855
-1.11015737056732178 4.69486045837402344 -0.665679752826690674
1.29193758964538574 4.10178947448730469 -0.136367172002792358
-0.420530319213867188 2.20312595367431641 -1.20889949798583984
0.57360309362411499 4.39938879013061523 -0.728375852108001709
0.976676464080810547 4.06404638290405273 -0.525206685066223145
-0.721634984016418457 4.34650850296020508 -0.458115637302398682
0.161691814661026001 1.52653515338897705 -1.1249544620513916
0.928613841533660889 4.09854459762573242 -0.927049756050109863
1.25937879085540771 3.06206989288330078 -1.16937971115112305
-0.728562355041503906 2.13326382637023926 -1.14380562305450439
0.813972890377044678 4.03612756729125977 -0.926744937896728516
-1.81853342056274414 3.43587112426757812 -0.482583135366439819
-1.42066669464111328 3.85166120529174805 -0.814727187156677246
1.23459327220916748 2.77330565452575684 -1.16574811935424805
-0.0365013480186462402 2.31530165672302246 -1.21741652488708496
-1.55629229545593262 3.4998784065246582 -0.435871005058288574
0.501759648323059082 2.52214431762695312 -1.15234637260437012
0.492785930633544922 4.69457864761352539 -0.540243327617645264
-0.253051787614822388 2.55465817451477051 -1.1481400728225708
0.162327468395233154 1.53663671016693115 -1.14510476589202881
-0.273920565843582153 3.88151383399963379 -1.11594367027282715
